<svg xmlns="http://www.w3.org/2000/svg" width="512" height="512" id="moon"><path d="M211.407 185.107L210.781 184.375C203.773 175.607 199.184 164.353 200.644 152.961C204.425 123.464 240.046 104.293 268.516 111.123C279.211 113.689 288.216 118.807 295.486 127.086C296.724 126.616 297.915 125.543 299.044 124.818L305.196 121.188C317.661 114.54 329.699 112.546 343.579 113.272C341.316 111.406 339.61 108.779 337.592 106.585C315.553 82.6108 286.134 71.8721 253.628 80.4492C200.548 94.455 168.6 157.513 164.76 208.706C159.563 277.991 196.427 348.63 256.99 383.105C285.105 399.109 317.185 406.284 349.378 406.313C354.037 406.317 358.954 406.617 363.574 406.146C411.494 401.253 463.265 367.016 486.554 325.416L491.527 316.125C496.474 307.568 508.227 310.976 505.584 322.662C503.047 333.876 497.144 349.76 492.8 360.203C455.535 449.784 359.841 507.672 263.938 507.758C244.613 507.775 230.881 506.451 211.625 502.264C94.4485 476.783 9.67401 376.546 9.69583 256.784L9.76479 245.406C13.4116 162.59 64.6831 81.6981 138.952 44.6618C148.929 39.6863 159.635 35.5863 170.21 32.0603L183.876 27.8373C187.549 26.7574 191.223 25.5993 195.026 25.089C198.922 24.8209 224.99 33.6791 226.63 39.1145C229.023 47.0447 219.94 49.0365 214.5 51.1911L206.758 54.6216C135.518 89.219 89.2772 169.052 101.053 248.208C116.313 350.783 204.603 426.331 309.606 419.786L319.286 419.657C320.721 419.624 322.24 419.704 323.625 419.304C320.927 418.776 318.177 418.962 315.446 418.724C311.157 418.35 306.691 417.586 302.471 416.719C211.393 398.009 149.053 312.673 148.965 221.6C148.951 206.336 150.097 194.207 153.668 179.135C166.897 123.295 207.26 66.916 268.365 62.3313C302.772 59.7497 342.279 78.4678 358.319 109.81L360.985 115.5C363.633 121.661 368.566 121.248 373.361 125.42L376.087 124.089C409.54 110.145 451.376 146.415 436.558 181.141C429.267 198.228 413.946 206.343 397.598 212.88C400.285 216.43 403 220.002 405.089 223.948L408.717 231.558L418.204 231.404C436.739 231.267 451.337 236.578 463.462 251.723C475.945 267.314 476.234 288.012 467.629 305.313C456.072 328.55 428.568 349.637 403.189 356.278C396.624 357.996 389.976 358.332 383.25 358.833L377.357 359.401L300.128 359.697C271.036 359.68 241.797 357.582 222.224 332.345C193.771 295.659 212.949 238.865 260.299 231.141C261.923 230.876 261.611 230.903 262.237 229.37L264.143 224.715C266.214 219.823 271.782 211.509 276.185 208.154L276.374 208.013C251.88 207.979 228.649 205.078 211.407 185.107ZM193.43 41.831C183.474 43.4757 173.934 47.0354 164.566 50.6892C85.5125 81.5246 30.364 160.043 25.7464 244.477L25.646 257.465C25.6416 265.03 25.3709 272.944 26.5881 280.442L27.8618 290.068C31.0756 311.131 36.564 330.742 45.1765 350.278C81.189 431.963 161.995 487.092 250.625 492.212L264.009 492.325C320.86 492.31 375.545 470.771 419.004 434.326C437.289 418.785 459.046 393.989 469.732 371.842C466.133 374.884 463.016 378.388 459.294 381.307C436.168 399.447 408.953 412.373 380.668 420.118L356.984 425.526C340.265 429.852 323.925 433.995 306.609 435.169C194.467 442.776 92.3073 350.936 84.0826 239.058L83.7293 224.296C83.7264 152.735 121.676 85.9811 183.577 49.2763L197.303 41.6418C196.109 41.685 194.58 41.5803 193.43 41.831ZM253.232 125.094C222.53 129.064 200.965 159.523 230.452 181.63C244.38 192.072 261.969 192.819 278.69 192.821C289.449 192.823 293.757 193.114 303.767 189.195C327.405 179.943 357.751 181.313 378.734 196.272L383.194 199.8C388.397 198.828 393.523 197.738 398.459 195.762C415.163 189.045 431.992 171.719 420.592 153.439C413.565 142.172 398.511 132.85 385.072 137.635C381.029 139.074 376.582 142.426 372.159 142.028C367.71 141.627 363.347 136.619 359.513 134.442C344.196 125.744 319.745 126.364 306.667 139.281C293.205 152.577 292.398 146.113 282.814 135.976C275.162 127.884 264.194 124.178 253.232 125.094ZM329.159 199.062C308.587 200.307 289.195 211.701 279.276 229.87L276.251 236.125C273.755 241.925 273.902 244.642 267.235 245.811L259.587 247.191C238.526 251.813 224.77 270.951 224.724 291.947C224.65 325.993 249.955 341.113 281.586 343.382C283.476 343.518 285.297 344.016 287.215 344.114L369.155 344.155L378.047 343.351C399.386 342.075 419.11 340.238 423.283 315.227C425.811 300.072 416.814 284.575 403.327 277.757C390.031 271.752 372.473 274.22 360.491 282.457C357.989 284.177 355.356 287.257 352.51 288.227C345.766 290.526 339.783 283.257 343.145 277.102C346.864 270.292 362.895 262.955 369.797 261.103C383.89 257.322 399.848 257.669 412.703 265.206C428.929 274.72 442.799 295.143 438.812 314.684L438.056 319.041C447.991 308.864 458.162 296.567 457.991 281.497C457.784 263.219 443.119 248.814 425.302 246.888C418.082 246.107 402.883 249.179 398.434 245.071C394.035 241.009 392.126 233.565 389.021 228.467C375.696 206.594 353.646 198.226 329.258 199.054L329.159 199.062Z"></path></svg>